<?xml version="1.0" encoding="UTF-8"?>
<!DOCTYPE svg PUBLIC "-//W3C//DTD SVG 1.1//EN" "http://www.w3.org/Graphics/SVG/1.1/DTD/svg11.dtd">
<svg xmlns="http://www.w3.org/2000/svg" version="1.1" width="256px" height="256px" style="shape-rendering:geometricPrecision; text-rendering:geometricPrecision; image-rendering:optimizeQuality; fill-rule:evenodd; clip-rule:evenodd" xmlns:xlink="http://www.w3.org/1999/xlink">
<g><path style="opacity:0.884" fill="#763dbd" d="M 152.5,5.5 C 142.46,6.28079 132.46,7.28079 122.5,8.5C 123.089,6.64813 123.756,4.8148 124.5,3C 134.14,1.94523 143.473,2.77856 152.5,5.5 Z"/></g>
<g><path style="opacity:0.951" fill="#7240bd" d="M 152.5,5.5 C 159.425,6.47256 165.758,8.8059 171.5,12.5C 154.852,14.054 138.186,15.3873 121.5,16.5C 122.265,13.9039 122.599,11.2372 122.5,8.5C 132.46,7.28079 142.46,6.28079 152.5,5.5 Z"/></g>
<g><path style="opacity:0.968" fill="#6f43be" d="M 171.5,12.5 C 174.331,13.0787 176.664,14.412 178.5,16.5C 159.142,17.9464 139.809,19.6131 120.5,21.5C 121.301,19.9582 121.634,18.2915 121.5,16.5C 138.186,15.3873 154.852,14.054 171.5,12.5 Z"/></g>
<g><path style="opacity:0.974" fill="#6c46be" d="M 178.5,16.5 C 182.025,17.7589 185.025,19.7589 187.5,22.5C 164.819,24.3901 142.152,26.3901 119.5,28.5C 120.219,26.2362 120.552,23.9029 120.5,21.5C 139.809,19.6131 159.142,17.9464 178.5,16.5 Z"/></g>
<g><path style="opacity:0.982" fill="#6849bf" d="M 187.5,22.5 C 189.525,24.1964 191.525,25.863 193.5,27.5C 168.522,29.892 143.522,32.2253 118.5,34.5C 119.341,32.6208 119.675,30.6208 119.5,28.5C 142.152,26.3901 164.819,24.3901 187.5,22.5 Z"/></g>
<g><path style="opacity:0.959" fill="#654cbf" d="M 193.5,27.5 C 195.63,29.1271 197.63,30.9604 199.5,33C 201.382,33.1981 203.048,33.6981 204.5,34.5C 185.298,35.5188 166.298,37.1855 147.5,39.5C 143.119,39.3718 138.785,39.7051 134.5,40.5C 124.821,41.0011 115.154,41.6677 105.5,42.5C 110.778,41.5904 115.112,38.9238 118.5,34.5C 143.522,32.2253 168.522,29.892 193.5,27.5 Z"/></g>
<g><path style="opacity:0.962" fill="#614fc0" d="M 204.5,34.5 C 209.139,34.8243 212.806,36.8243 215.5,40.5C 197.909,42.4629 180.243,44.1296 162.5,45.5C 157.824,42.7184 152.824,40.7184 147.5,39.5C 166.298,37.1855 185.298,35.5188 204.5,34.5 Z"/></g>
<g><path style="opacity:0.909" fill="#614fc0" d="M 134.5,40.5 C 129.224,42.4762 124.557,45.4762 120.5,49.5C 105.128,50.5032 89.7943,51.8366 74.5,53.5C 84.1165,48.0705 94.4499,44.4038 105.5,42.5C 115.154,41.6677 124.821,41.0011 134.5,40.5 Z"/></g>
<g><path style="opacity:0.963" fill="#5e52c1" d="M 215.5,40.5 C 217.404,40.7376 218.738,41.7376 219.5,43.5C 201.689,45.6346 183.689,47.3013 165.5,48.5C 164.167,47.8333 163.167,46.8333 162.5,45.5C 180.243,44.1296 197.909,42.4629 215.5,40.5 Z"/></g>
<g><path style="opacity:0.946" fill="#5b54c1" d="M 219.5,43.5 C 221.522,45.5313 223.189,47.8646 224.5,50.5C 222.5,50.8333 220.5,51.1667 218.5,51.5C 216.085,48.5936 213.085,47.927 209.5,49.5C 209.863,50.1835 210.196,50.8501 210.5,51.5C 197.235,53.0506 183.901,54.384 170.5,55.5C 169.221,52.8883 167.555,50.5549 165.5,48.5C 183.689,47.3013 201.689,45.6346 219.5,43.5 Z"/></g>
<g><path style="opacity:0.954" fill="#5e52c1" d="M 120.5,49.5 C 119.833,50.5 119.167,51.5 118.5,52.5C 101.517,54.2258 84.5166,55.8925 67.5,57.5C 69.3356,55.412 71.6689,54.0787 74.5,53.5C 89.7943,51.8366 105.128,50.5032 120.5,49.5 Z"/></g>
<g><path style="opacity:0.968" fill="#5956c2" d="M 210.5,51.5 C 211.11,52.391 211.443,53.391 211.5,54.5C 198.147,55.2594 184.814,56.2594 171.5,57.5C 171.167,56.8333 170.833,56.1667 170.5,55.5C 183.901,54.384 197.235,53.0506 210.5,51.5 Z"/></g>
<g><path style="opacity:0.966" fill="#5b54c1" d="M 118.5,52.5 C 116.642,54.8831 115.308,57.5498 114.5,60.5C 95.1452,61.9462 75.8119,63.6129 56.5,65.5C 59.5971,62.1116 63.2637,59.4449 67.5,57.5C 84.5166,55.8925 101.517,54.2258 118.5,52.5 Z"/></g>
<g><path style="opacity:0.724" fill="#5857c2" d="M 224.5,50.5 C 225.167,51.8333 225.833,53.1667 226.5,54.5C 224.5,54.5 222.5,54.5 220.5,54.5C 219.599,53.7095 218.932,52.7095 218.5,51.5C 220.5,51.1667 222.5,50.8333 224.5,50.5 Z"/></g>
<g><path style="opacity:0.796" fill="#5a55c1" d="M 143.5,57.5 C 137.85,58.2212 132.183,58.8878 126.5,59.5C 129.988,54.8106 134.655,53.3106 140.5,55C 141.942,55.3768 142.942,56.2101 143.5,57.5 Z"/></g>
<g><path style="opacity:0.968" fill="#5858c2" d="M 211.5,54.5 C 212.167,54.5 212.5,54.8333 212.5,55.5C 199.15,56.7741 185.817,58.1075 172.5,59.5C 172.167,58.8333 171.833,58.1667 171.5,57.5C 184.814,56.2594 198.147,55.2594 211.5,54.5 Z"/></g>
<g><path style="opacity:0.952" fill="#545ac2" d="M 220.5,54.5 C 222.5,54.5 224.5,54.5 226.5,54.5C 227.642,58.0712 228.309,61.7379 228.5,65.5C 210.5,67.1667 192.5,68.8333 174.5,70.5C 174.089,66.7785 173.422,63.1119 172.5,59.5C 185.817,58.1075 199.15,56.7741 212.5,55.5C 215.551,67.0163 218.218,66.683 220.5,54.5 Z"/></g>
<g><path style="opacity:0.941" fill="#5956c2" d="M 143.5,57.5 C 144.5,57.8333 145.167,58.5 145.5,59.5C 138.883,60.4654 132.216,61.1321 125.5,61.5C 125.328,60.5084 125.662,59.8417 126.5,59.5C 132.183,58.8878 137.85,58.2212 143.5,57.5 Z"/></g>
<g><path style="opacity:0.923" fill="#5858c2" d="M 145.5,59.5 C 146.338,59.8417 146.672,60.5084 146.5,61.5C 139.16,62.1067 131.827,62.7733 124.5,63.5C 124.328,62.5084 124.662,61.8417 125.5,61.5C 132.216,61.1321 138.883,60.4654 145.5,59.5 Z"/></g>
<g><path style="opacity:0.978" fill="#5956c2" d="M 114.5,60.5 C 114.167,61.1667 113.833,61.8333 113.5,62.5C 93.8642,64.4669 74.1975,66.1335 54.5,67.5C 54.8333,66.5 55.5,65.8333 56.5,65.5C 75.8119,63.6129 95.1452,61.9462 114.5,60.5 Z"/></g>
<g><path style="opacity:0.949" fill="#545ac2" d="M 146.5,61.5 C 147.641,64.6399 147.808,67.9733 147,71.5C 146.617,72.056 146.117,72.3893 145.5,72.5C 139.569,73.3844 133.569,74.051 127.5,74.5C 124.807,71.4608 123.807,67.7941 124.5,63.5C 131.827,62.7733 139.16,62.1067 146.5,61.5 Z"/></g>
<g><path style="opacity:0.977" fill="#5858c2" d="M 113.5,62.5 C 113.5,63.1667 113.5,63.8333 113.5,64.5C 93.1715,66.2218 72.8382,67.8885 52.5,69.5C 52.8333,68.5 53.5,67.8333 54.5,67.5C 74.1975,66.1335 93.8642,64.4669 113.5,62.5 Z"/></g>
<g><path style="opacity:0.981" fill="#545ac2" d="M 113.5,64.5 C 112.272,68.1838 112.272,71.8505 113.5,75.5C 89.5418,77.941 65.5418,79.941 41.5,81.5C 44.4578,76.8744 48.1245,72.8744 52.5,69.5C 72.8382,67.8885 93.1715,66.2218 113.5,64.5 Z"/></g>
<g><path style="opacity:0.98" fill="#4e60c3" d="M 228.5,65.5 C 227.918,70.0834 226.585,74.4167 224.5,78.5C 206.856,80.3315 189.19,81.9982 171.5,83.5C 172.971,79.282 173.971,74.9487 174.5,70.5C 192.5,68.8333 210.5,67.1667 228.5,65.5 Z"/></g>
<g><path style="opacity:0.768" fill="#505ec3" d="M 145.5,72.5 C 144.969,74.6237 143.635,76.1237 141.5,77C 136.371,78.8076 131.704,77.9743 127.5,74.5C 133.569,74.051 139.569,73.3844 145.5,72.5 Z"/></g>
<g><path style="opacity:0.983" fill="#4d60c3" d="M 113.5,75.5 C 114.33,80.1596 115.997,84.493 118.5,88.5C 89.8138,90.5927 61.1471,92.926 32.5,95.5C 34.5058,90.1454 37.5058,85.4787 41.5,81.5C 65.5418,79.941 89.5418,77.941 113.5,75.5 Z"/></g>
<g><path style="opacity:0.968" fill="#4766c4" d="M 224.5,78.5 C 223.52,81.1161 222.02,83.4494 220,85.5C 219.506,87.1341 219.34,88.8008 219.5,90.5C 200.179,92.2867 180.846,93.9534 161.5,95.5C 165.299,91.9094 168.633,87.9094 171.5,83.5C 189.19,81.9982 206.856,80.3315 224.5,78.5 Z"/></g>
<g><path style="opacity:0.984" fill="#4766c4" d="M 118.5,88.5 C 122.208,92.2101 126.208,95.5434 130.5,98.5C 95.8205,101.38 61.1539,104.38 26.5,107.5C 27.9922,103.182 29.9922,99.1822 32.5,95.5C 61.1471,92.926 89.8138,90.5927 118.5,88.5 Z"/></g>
<g><path style="opacity:0.968" fill="#4369c5" d="M 219.5,90.5 C 219.5,91.8333 219.5,93.1667 219.5,94.5C 197.837,96.2269 176.171,97.8936 154.5,99.5C 156.635,97.9291 158.968,96.5957 161.5,95.5C 180.846,93.9534 200.179,92.2867 219.5,90.5 Z"/></g>
<g><path style="opacity:0.97" fill="#406cc5" d="M 219.5,94.5 C 218.735,97.0961 218.401,99.7628 218.5,102.5C 201.146,104.057 183.812,105.724 166.5,107.5C 144.517,109.388 122.517,111.054 100.5,112.5C 100.038,111.12 99.0377,110.453 97.5,110.5C 95.5775,111.092 93.9108,112.092 92.5,113.5C 69.2129,115.92 45.8796,117.92 22.5,119.5C 23.1667,116.833 23.8333,114.167 24.5,111.5C 63.9887,108.044 103.322,104.377 142.5,100.5C 146.534,100.495 150.534,100.162 154.5,99.5C 176.171,97.8936 197.837,96.2269 219.5,94.5 Z"/></g>
<g><path style="opacity:0.973" fill="#4369c5" d="M 130.5,98.5 C 134.384,99.7927 138.384,100.459 142.5,100.5C 103.322,104.377 63.9887,108.044 24.5,111.5C 25.1667,110.167 25.8333,108.833 26.5,107.5C 61.1539,104.38 95.8205,101.38 130.5,98.5 Z"/></g>
<g><path style="opacity:0.966" fill="#3d6fc5" d="M 166.5,107.5 C 165.294,108.88 165.627,110.047 167.5,111C 170.365,111.183 173.031,111.683 175.5,112.5C 148.818,114.714 122.151,117.047 95.5,119.5C 96.9213,116.991 98.5879,114.657 100.5,112.5C 122.517,111.054 144.517,109.388 166.5,107.5 Z"/></g>
<g><path style="opacity:0.943" fill="#3a71c6" d="M 175.5,112.5 C 188.362,112.899 201.029,113.899 213.5,115.5C 185.676,117.938 158.009,120.604 130.5,123.5C 126.436,121.199 122.103,120.032 117.5,120C 116.601,121.652 115.601,123.152 114.5,124.5C 106.814,125.002 99.1474,125.668 91.5,126.5C 92.5804,124.004 93.9138,121.67 95.5,119.5C 122.151,117.047 148.818,114.714 175.5,112.5 Z"/></g>
<g><path style="opacity:0.978" fill="#3d6fc5" d="M 92.5,113.5 C 91.0664,116.047 89.3998,118.381 87.5,120.5C 65.5005,122.167 43.5005,123.833 21.5,125.5C 21.3253,123.379 21.6586,121.379 22.5,119.5C 45.8796,117.92 69.2129,115.92 92.5,113.5 Z"/></g>
<g><path style="opacity:0.966" fill="#3674c6" d="M 213.5,115.5 C 221.189,115.613 228.855,116.113 236.5,117C 238.056,119.501 237.389,121.001 234.5,121.5C 205.43,123.931 176.43,126.597 147.5,129.5C 141.733,127.783 136.066,125.783 130.5,123.5C 158.009,120.604 185.676,117.938 213.5,115.5 Z"/></g>
<g><path style="opacity:0.983" fill="#3a71c6" d="M 87.5,120.5 C 86.7729,122.954 85.7729,125.287 84.5,127.5C 63.1481,128.926 41.8148,130.593 20.5,132.5C 20.298,130.05 20.6314,127.717 21.5,125.5C 43.5005,123.833 65.5005,122.167 87.5,120.5 Z"/></g>
<g><path style="opacity:0.885" fill="#3377c7" d="M 234.5,121.5 C 211.78,126.911 188.78,131.578 165.5,135.5C 159.052,134.597 153.052,132.597 147.5,129.5C 176.43,126.597 205.43,123.931 234.5,121.5 Z"/></g>
<g><path style="opacity:0.933" fill="#3674c6" d="M 114.5,124.5 C 112.833,127.167 111.167,129.833 109.5,132.5C 102.153,133.057 94.8193,133.723 87.5,134.5C 88.3257,131.515 89.659,128.849 91.5,126.5C 99.1474,125.668 106.814,125.002 114.5,124.5 Z"/></g>
<g><path style="opacity:0.981" fill="#3674c6" d="M 84.5,127.5 C 83.7729,129.954 82.7729,132.287 81.5,134.5C 60.8829,136.608 40.2162,138.608 19.5,140.5C 19.4013,137.763 19.7347,135.096 20.5,132.5C 41.8148,130.593 63.1481,128.926 84.5,127.5 Z"/></g>
<g><path style="opacity:0.931" fill="#3377c7" d="M 109.5,132.5 C 108.763,134.305 107.763,135.971 106.5,137.5C 106.863,138.183 107.196,138.85 107.5,139.5C 101.186,140.286 94.8529,140.953 88.5,141.5C 86.4094,139.458 86.0761,137.125 87.5,134.5C 94.8193,133.723 102.153,133.057 109.5,132.5 Z"/></g>
<g><path style="opacity:0.983" fill="#3377c7" d="M 81.5,134.5 C 81.5,136.833 81.5,139.167 81.5,141.5C 61.0043,143.788 40.3377,145.788 19.5,147.5C 19.5,145.167 19.5,142.833 19.5,140.5C 40.2162,138.608 60.8829,136.608 81.5,134.5 Z"/></g>
<g><path style="opacity:0.847" fill="#2f7bc7" d="M 154.5,142.5 C 146.309,143.659 137.975,144.659 129.5,145.5C 134.788,139.46 141.454,137.294 149.5,139C 151.584,139.697 153.251,140.864 154.5,142.5 Z"/></g>
<g><path style="opacity:0.91" fill="#2f7bc7" d="M 107.5,139.5 C 111.714,141.774 116.047,143.774 120.5,145.5C 112.608,146.606 104.608,147.606 96.5,148.5C 93.2157,146.883 90.5491,144.55 88.5,141.5C 94.8529,140.953 101.186,140.286 107.5,139.5 Z"/></g>
<g><path style="opacity:0.985" fill="#2f7ac7" d="M 81.5,141.5 C 83.5,144.167 85.8333,146.5 88.5,148.5C 65.5545,150.884 42.5545,152.884 19.5,154.5C 19.5,152.167 19.5,149.833 19.5,147.5C 40.3377,145.788 61.0043,143.788 81.5,141.5 Z"/></g>
<g><path style="opacity:0.954" fill="#2c7dc8" d="M 154.5,142.5 C 156.727,143.401 157.727,145.067 157.5,147.5C 140.237,149.403 122.904,151.07 105.5,152.5C 102.088,151.958 99.0878,150.625 96.5,148.5C 104.608,147.606 112.608,146.606 120.5,145.5C 123.553,146.424 126.553,146.424 129.5,145.5C 137.975,144.659 146.309,143.659 154.5,142.5 Z"/></g>
<g><path style="opacity:0.888" fill="#2881c8" d="M 220.5,153.5 C 215.668,154.4 210.668,155.066 205.5,155.5C 200.786,155.353 196.119,155.686 191.5,156.5C 186.527,157.164 181.527,157.497 176.5,157.5C 181.499,148.824 189.166,144.491 199.5,144.5C 207.861,144.611 214.861,147.611 220.5,153.5 Z"/></g>
<g><path style="opacity:0.848" fill="#2980c8" d="M 157.5,147.5 C 157.927,151.601 155.76,153.934 151,154.5C 148.336,154.251 146.169,153.085 144.5,151C 141.421,149.91 139.088,150.743 137.5,153.5C 139.055,155.943 139.722,158.61 139.5,161.5C 137.167,161.5 134.833,161.5 132.5,161.5C 131.639,159.614 130.639,157.78 129.5,156C 124.167,155.667 118.833,155.333 113.5,155C 110.621,154.454 107.954,153.621 105.5,152.5C 122.904,151.07 140.237,149.403 157.5,147.5 Z"/></g>
<g><path style="opacity:0.978" fill="#2c7dc8" d="M 88.5,148.5 C 91.0472,149.934 93.3805,151.6 95.5,153.5C 70.1836,155.721 44.8503,157.721 19.5,159.5C 19.5,157.833 19.5,156.167 19.5,154.5C 42.5545,152.884 65.5545,150.884 88.5,148.5 Z"/></g>
<g><path style="opacity:0.982" fill="#2881c8" d="M 95.5,153.5 C 100.878,155.222 104.211,158.889 105.5,164.5C 77.4678,166.473 49.4678,168.806 21.5,171.5C 20.8333,167.5 20.1667,163.5 19.5,159.5C 44.8503,157.721 70.1836,155.721 95.5,153.5 Z"/></g>
<g><path style="opacity:0.859" fill="#2684c9" d="M 220.5,153.5 C 221.338,153.842 221.672,154.508 221.5,155.5C 216.797,155.437 212.13,155.771 207.5,156.5C 206.508,156.672 205.842,156.338 205.5,155.5C 210.668,155.066 215.668,154.4 220.5,153.5 Z"/></g>
<g><path style="opacity:0.896" fill="#2286c9" d="M 221.5,155.5 C 224.814,158.735 226.814,162.735 227.5,167.5C 223.6,168.43 219.6,168.763 215.5,168.5C 214.317,163.455 211.65,159.455 207.5,156.5C 212.13,155.771 216.797,155.437 221.5,155.5 Z"/></g>
<g><path style="opacity:0.889" fill="#2584c9" d="M 191.5,156.5 C 191.027,157.906 190.027,158.573 188.5,158.5C 184.102,158.294 179.768,158.627 175.5,159.5C 175.328,158.508 175.662,157.842 176.5,157.5C 181.527,157.497 186.527,157.164 191.5,156.5 Z"/></g>
<g><path style="opacity:0.909" fill="#2286c9" d="M 188.5,158.5 C 185.074,162.103 183.408,166.437 183.5,171.5C 180.214,172.207 176.881,172.54 173.5,172.5C 173.335,169.15 173.502,165.817 174,162.5C 174.232,161.263 174.732,160.263 175.5,159.5C 179.768,158.627 184.102,158.294 188.5,158.5 Z"/></g>
<g><path style="opacity:0.86" fill="#2187c9" d="M 210.5,169.5 C 207.721,169.279 205.054,169.612 202.5,170.5C 198.721,170.724 194.888,170.724 191,170.5C 189.835,166.316 191.335,163.483 195.5,162C 202.701,160.267 207.701,162.767 210.5,169.5 Z"/></g>
<g><path style="opacity:0.343" fill="#2584c9" d="M 132.5,161.5 C 134.833,161.5 137.167,161.5 139.5,161.5C 138.866,162.947 137.699,163.613 136,163.5C 134.301,163.613 133.134,162.947 132.5,161.5 Z"/></g>
<g><path style="opacity:0.987" fill="#2684c9" d="M 105.5,164.5 C 105.5,164.833 105.5,165.167 105.5,165.5C 77.4998,167.833 49.4998,170.167 21.5,172.5C 21.5,172.167 21.5,171.833 21.5,171.5C 49.4678,168.806 77.4678,166.473 105.5,164.5 Z"/></g>
<g><path style="opacity:0.963" fill="#2286c9" d="M 105.5,165.5 C 106.878,169.721 107.878,174.054 108.5,178.5C 104.143,178.586 99.81,178.92 95.5,179.5C 92.2093,174.205 87.5426,170.871 81.5,169.5C 79.626,169.39 78.126,170.056 77,171.5C 76.1744,174.793 75.6744,178.126 75.5,181.5C 59.1519,182.668 42.8186,184.001 26.5,185.5C 24.387,181.419 22.7203,177.086 21.5,172.5C 49.4998,170.167 77.4998,167.833 105.5,165.5 Z"/></g>
<g><path style="opacity:0.899" fill="#1b8cc9" d="M 227.5,167.5 C 228.69,172.523 228.69,177.523 227.5,182.5C 223.131,182.467 218.798,182.8 214.5,183.5C 215.759,178.472 216.092,173.472 215.5,168.5C 219.6,168.763 223.6,168.43 227.5,167.5 Z"/></g>
<g><path style="opacity:0.9" fill="#1b8cc9" d="M 210.5,169.5 C 211.356,174.464 210.356,179.131 207.5,183.5C 199.209,184.552 190.876,185.219 182.5,185.5C 177.31,182.818 174.31,178.485 173.5,172.5C 176.881,172.54 180.214,172.207 183.5,171.5C 187.875,180.69 194.042,182.357 202,176.5C 202.495,174.527 202.662,172.527 202.5,170.5C 205.054,169.612 207.721,169.279 210.5,169.5 Z"/></g>
<g><path style="opacity:0.862" fill="#1b8cc9" d="M 108.5,178.5 C 108.108,181.722 108.608,184.722 110,187.5C 111.752,180.882 115.918,178.215 122.5,179.5C 123.631,181.074 123.798,182.741 123,184.5C 121.333,185.5 119.667,186.5 118,187.5C 117.51,188.793 117.343,190.127 117.5,191.5C 112.798,192.108 108.131,192.775 103.5,193.5C 101.233,188.576 98.5665,183.909 95.5,179.5C 99.81,178.92 104.143,178.586 108.5,178.5 Z"/></g>
<g><path style="opacity:0.976" fill="#1b8cc9" d="M 75.5,181.5 C 75.9928,186.299 76.9928,190.965 78.5,195.5C 63.1276,196.503 47.7943,197.837 32.5,199.5C 29.5329,195.271 27.5329,190.604 26.5,185.5C 42.8186,184.001 59.1519,182.668 75.5,181.5 Z"/></g>
<g><path style="opacity:0.908" fill="#1592ca" d="M 227.5,182.5 C 227.122,186.678 226.122,190.678 224.5,194.5C 218.833,195.167 213.167,195.833 207.5,196.5C 210.611,192.613 212.944,188.28 214.5,183.5C 218.798,182.8 223.131,182.467 227.5,182.5 Z"/></g>
<g><path style="opacity:0.813" fill="#1790ca" d="M 207.5,183.5 C 201.587,189.457 194.587,190.957 186.5,188C 184.934,187.392 183.6,186.558 182.5,185.5C 190.876,185.219 199.209,184.552 207.5,183.5 Z"/></g>
<g><path style="opacity:0.933" fill="#1592ca" d="M 136.5,202.5 C 128.506,203.227 120.506,203.893 112.5,204.5C 108.337,201.872 105.337,198.205 103.5,193.5C 108.131,192.775 112.798,192.108 117.5,191.5C 118.317,193.478 119.817,194.478 122,194.5C 125.296,193.87 128.13,192.37 130.5,190C 131.833,189.333 133.167,189.333 134.5,190C 136.69,192.616 138.024,195.616 138.5,199C 137.915,200.302 137.249,201.469 136.5,202.5 Z"/></g>
<g><path style="opacity:0.934" fill="#1295cb" d="M 224.5,194.5 C 223.89,195.391 223.557,196.391 223.5,197.5C 217.839,197.907 212.172,198.24 206.5,198.5C 206.833,197.833 207.167,197.167 207.5,196.5C 213.167,195.833 218.833,195.167 224.5,194.5 Z"/></g>
<g><path style="opacity:0.97" fill="#1592ca" d="M 78.5,195.5 C 81.0917,199.432 84.0917,203.099 87.5,206.5C 71.8765,208.219 56.2098,209.552 40.5,210.5C 37.6007,207.048 34.9341,203.382 32.5,199.5C 47.7943,197.837 63.1276,196.503 78.5,195.5 Z"/></g>
<g><path style="opacity:0.915" fill="#0e97cb" d="M 223.5,197.5 C 221.339,202.492 218.672,207.159 215.5,211.5C 205.53,212.619 195.53,213.619 185.5,214.5C 193.045,209.965 200.045,204.632 206.5,198.5C 212.172,198.24 217.839,197.907 223.5,197.5 Z"/></g>
<g><path style="opacity:0.685" fill="#1195cb" d="M 136.5,202.5 C 136.586,203.496 136.252,204.329 135.5,205C 127.654,209.61 119.988,209.443 112.5,204.5C 120.506,203.893 128.506,203.227 136.5,202.5 Z"/></g>
<g><path style="opacity:0.959" fill="#1295cb" d="M 87.5,206.5 C 88.5,207.167 89.5,207.833 90.5,208.5C 74.6352,210.269 58.6352,211.936 42.5,213.5C 41.5987,212.71 40.9321,211.71 40.5,210.5C 56.2098,209.552 71.8765,208.219 87.5,206.5 Z"/></g>
<g><path style="opacity:0.962" fill="#0e97cb" d="M 90.5,208.5 C 97.5798,213.039 104.913,217.039 112.5,220.5C 92.9002,222.706 73.2336,224.373 53.5,225.5C 49.1245,222.126 45.4578,218.126 42.5,213.5C 58.6352,211.936 74.6352,210.269 90.5,208.5 Z"/></g>
<g><path style="opacity:0.91" fill="#0a9bcc" d="M 215.5,211.5 C 213.528,215.105 210.861,218.105 207.5,220.5C 187.206,222.587 166.873,224.254 146.5,225.5C 159.916,223.7 172.916,220.033 185.5,214.5C 195.53,213.619 205.53,212.619 215.5,211.5 Z"/></g>
<g><path style="opacity:0.961" fill="#0b9bcc" d="M 112.5,220.5 C 123.601,223.623 134.934,225.29 146.5,225.5C 118.98,228.275 91.3131,230.942 63.5,233.5C 59.8536,231.183 56.5203,228.516 53.5,225.5C 73.2336,224.373 92.9002,222.706 112.5,220.5 Z"/></g>
<g><path style="opacity:0.986" fill="#089dcc" d="M 207.5,220.5 C 205.07,224.719 201.737,228.053 197.5,230.5C 156.5,233.833 115.5,237.167 74.5,240.5C 70.543,238.527 66.8763,236.194 63.5,233.5C 91.3131,230.942 118.98,228.275 146.5,225.5C 166.873,224.254 187.206,222.587 207.5,220.5 Z"/></g>
<g><path style="opacity:0.974" fill="#04a0cd" d="M 197.5,230.5 C 191.706,235.283 185.372,239.283 178.5,242.5C 150.806,244.533 123.139,246.866 95.5,249.5C 87.8619,247.844 80.8619,244.844 74.5,240.5C 115.5,237.167 156.5,233.833 197.5,230.5 Z"/></g>
<g><path style="opacity:0.895" fill="#01a3ce" d="M 178.5,242.5 C 151.714,255.474 124.047,257.807 95.5,249.5C 123.139,246.866 150.806,244.533 178.5,242.5 Z"/></g>
</svg>
